<svg width="33" height="32" viewBox="0 0 33 32" fill="none" xmlns="http://www.w3.org/2000/svg">
<path d="M26.9703 7H23.5053L21.8016 4.445C21.7103 4.30819 21.5867 4.196 21.4417 4.11838C21.2967 4.04076 21.1348 4.0001 20.9703 4H12.9703C12.8059 4.0001 12.644 4.04076 12.499 4.11838C12.354 4.196 12.2304 4.30819 12.1391 4.445L10.4341 7H6.97034C6.17469 7 5.41163 7.31607 4.84902 7.87868C4.28641 8.44129 3.97034 9.20435 3.97034 10V24C3.97034 24.7956 4.28641 25.5587 4.84902 26.1213C5.41163 26.6839 6.17469 27 6.97034 27H26.9703C27.766 27 28.529 26.6839 29.0917 26.1213C29.6543 25.5587 29.9703 24.7956 29.9703 24V10C29.9703 9.20435 29.6543 8.44129 29.0917 7.87868C28.529 7.31607 27.766 7 26.9703 7ZM27.9703 24C27.9703 24.2652 27.865 24.5196 27.6774 24.7071C27.4899 24.8946 27.2356 25 26.9703 25H6.97034C6.70512 25 6.45077 24.8946 6.26323 24.7071C6.07569 24.5196 5.97034 24.2652 5.97034 24V10C5.97034 9.73478 6.07569 9.48043 6.26323 9.29289C6.45077 9.10536 6.70512 9 6.97034 9H10.9703C11.135 9.00011 11.2972 8.95954 11.4424 8.88191C11.5876 8.80428 11.7114 8.69199 11.8028 8.555L13.5053 6H20.4341L22.1378 8.555C22.2292 8.69199 22.353 8.80428 22.4983 8.88191C22.6435 8.95954 22.8057 9.00011 22.9703 9H26.9703C27.2356 9 27.4899 9.10536 27.6774 9.29289C27.865 9.48043 27.9703 9.73478 27.9703 10V24ZM16.9703 11C15.8825 11 14.8192 11.3226 13.9147 11.9269C13.0102 12.5313 12.3053 13.3902 11.889 14.3952C11.4727 15.4002 11.3638 16.5061 11.576 17.573C11.7882 18.6399 12.3121 19.6199 13.0812 20.3891C13.8504 21.1583 14.8304 21.6821 15.8973 21.8943C16.9642 22.1065 18.0701 21.9976 19.0751 21.5813C20.0801 21.1651 20.9391 20.4601 21.5434 19.5556C22.1478 18.6512 22.4703 17.5878 22.4703 16.5C22.4687 15.0418 21.8887 13.6438 20.8576 12.6127C19.8265 11.5816 18.4285 11.0017 16.9703 11ZM16.9703 20C16.2781 20 15.6014 19.7947 15.0258 19.4101C14.4503 19.0256 14.0017 18.4789 13.7368 17.8394C13.4719 17.1999 13.4025 16.4961 13.5376 15.8172C13.6726 15.1383 14.006 14.5146 14.4955 14.0251C14.9849 13.5356 15.6086 13.2023 16.2875 13.0673C16.9665 12.9322 17.6702 13.0015 18.3097 13.2664C18.9493 13.5313 19.4959 13.9799 19.8805 14.5555C20.2651 15.1311 20.4703 15.8078 20.4703 16.5C20.4703 17.4283 20.1016 18.3185 19.4452 18.9749C18.7888 19.6313 17.8986 20 16.9703 20Z" fill="black"/>
</svg>
