<svg width="105" height="105" viewBox="0 0 105 105" fill="none" xmlns="http://www.w3.org/2000/svg">
<path fill-rule="evenodd" clip-rule="evenodd" d="M53.1311 104.996C55.2442 104.971 57.3273 104.822 59.3733 104.554C57.3273 104.819 55.2444 104.971 53.1311 104.996ZM60.7028 104.363V67.6794H72.9364L75.262 52.5H60.7028V42.6512C60.7028 38.502 62.7331 34.4488 69.2597 34.4488H75.8821V21.5287C75.8821 21.5287 69.8724 20.5024 64.1285 20.5024C52.1386 20.5024 44.298 27.7672 44.298 40.931V52.5H30.9644V67.6794H44.298V104.363C19.1989 100.425 0 78.7048 0 52.5C0 23.5051 23.5051 0 52.5 0C81.4949 0 105 23.5051 105 52.5C105 78.7045 85.8015 100.425 60.7028 104.363Z" fill="#1977F3"/>
</svg>
