<svg width="33" height="32" viewBox="0 0 33 32" fill="none" xmlns="http://www.w3.org/2000/svg">
<path d="M27.9703 9.00001H23.5853C23.6341 8.95876 23.6841 8.91876 23.7316 8.87501C24.1112 8.53773 24.4172 8.12574 24.6303 7.66482C24.8435 7.2039 24.9592 6.70395 24.9703 6.19626C24.9868 5.64085 24.8895 5.08794 24.6845 4.57149C24.4795 4.05503 24.1711 3.58593 23.7783 3.19296C23.3854 2.8 22.9164 2.49148 22.4 2.28633C21.8836 2.08119 21.3307 1.98375 20.7753 2.00001C20.2674 2.01095 19.7672 2.12661 19.3061 2.33976C18.8449 2.55292 18.4328 2.85897 18.0953 3.23876C17.6284 3.77987 17.2489 4.39056 16.9703 5.04876C16.6918 4.39056 16.3122 3.77987 15.8453 3.23876C15.5079 2.85897 15.0957 2.55292 14.6346 2.33976C14.1734 2.12661 13.6732 2.01095 13.1653 2.00001C12.6099 1.98375 12.057 2.08119 11.5407 2.28633C11.0243 2.49148 10.5552 2.8 10.1624 3.19296C9.76955 3.58593 9.46117 4.05503 9.25618 4.57149C9.05119 5.08794 8.95392 5.64085 8.97034 6.19626C8.98145 6.70395 9.0972 7.2039 9.31034 7.66482C9.52349 8.12574 9.82945 8.53773 10.2091 8.87501C10.2566 8.91626 10.3066 8.95626 10.3553 9.00001H5.97034C5.4399 9.00001 4.9312 9.21072 4.55612 9.58579C4.18105 9.96087 3.97034 10.4696 3.97034 11V15C3.97034 15.5304 4.18105 16.0391 4.55612 16.4142C4.9312 16.7893 5.4399 17 5.97034 17V25C5.97034 25.5304 6.18105 26.0391 6.55612 26.4142C6.9312 26.7893 7.4399 27 7.97034 27H25.9703C26.5008 27 27.0095 26.7893 27.3846 26.4142C27.7596 26.0391 27.9703 25.5304 27.9703 25V17C28.5008 17 29.0095 16.7893 29.3846 16.4142C29.7596 16.0391 29.9703 15.5304 29.9703 15V11C29.9703 10.4696 29.7596 9.96087 29.3846 9.58579C29.0095 9.21072 28.5008 9.00001 27.9703 9.00001ZM19.5953 4.56376C19.7537 4.38891 19.9464 4.24868 20.1616 4.15188C20.3767 4.05508 20.6095 4.0038 20.8453 4.00126H20.9066C21.183 4.00298 21.4564 4.05988 21.7106 4.16859C21.9648 4.27731 22.1947 4.43568 22.3869 4.6344C22.5791 4.83312 22.7297 5.06821 22.8299 5.32589C22.9301 5.58356 22.9778 5.85864 22.9703 6.13501C22.9678 6.37088 22.9165 6.60368 22.8197 6.81879C22.7229 7.0339 22.5827 7.22667 22.4078 7.38501C21.2216 8.43501 19.2528 8.80501 18.0328 8.93501C18.1828 7.61126 18.5953 5.68751 19.5953 4.56376ZM11.5841 4.60876C11.9715 4.22137 12.4962 4.00259 13.0441 4.00001H13.1053C13.3412 4.00255 13.574 4.05383 13.7891 4.15063C14.0042 4.24743 14.197 4.38766 14.3553 4.56251C15.4041 5.74751 15.7741 7.71251 15.9041 8.92751C14.6891 8.80251 12.7241 8.42751 11.5391 7.37876C11.3642 7.22042 11.224 7.02765 11.1272 6.81254C11.0304 6.59743 10.9791 6.36463 10.9766 6.12876C10.9688 5.8478 11.0182 5.5682 11.1218 5.30691C11.2254 5.04562 11.381 4.8081 11.5791 4.60876H11.5841ZM5.97034 11H15.9703V15H5.97034V11ZM7.97034 17H15.9703V25H7.97034V17ZM25.9703 25H17.9703V17H25.9703V25ZM27.9703 15H17.9703V11H27.9703V15Z" fill="black"/>
</svg>
