<svg width="45" height="45" viewBox="0 0 45 45" fill="none" xmlns="http://www.w3.org/2000/svg">
<circle cx="22.5" cy="22.5" r="22.5" fill="#4A4A6A"/>
<path d="M35 21H33.9575C33.7175 18.1743 32.486 15.5245 30.4808 13.5192C28.4755 11.514 25.8257 10.2825 23 10.0425V9C23 8.73478 22.8946 8.48043 22.7071 8.29289C22.5196 8.10536 22.2652 8 22 8C21.7348 8 21.4804 8.10536 21.2929 8.29289C21.1054 8.48043 21 8.73478 21 9V10.0425C18.1743 10.2825 15.5245 11.514 13.5192 13.5192C11.514 15.5245 10.2825 18.1743 10.0425 21H9C8.73478 21 8.48043 21.1054 8.29289 21.2929C8.10536 21.4804 8 21.7348 8 22C8 22.2652 8.10536 22.5196 8.29289 22.7071C8.48043 22.8946 8.73478 23 9 23H10.0425C10.2825 25.8257 11.514 28.4755 13.5192 30.4808C15.5245 32.486 18.1743 33.7175 21 33.9575V35C21 35.2652 21.1054 35.5196 21.2929 35.7071C21.4804 35.8946 21.7348 36 22 36C22.2652 36 22.5196 35.8946 22.7071 35.7071C22.8946 35.5196 23 35.2652 23 35V33.9575C25.8257 33.7175 28.4755 32.486 30.4808 30.4808C32.486 28.4755 33.7175 25.8257 33.9575 23H35C35.2652 23 35.5196 22.8946 35.7071 22.7071C35.8946 22.5196 36 22.2652 36 22C36 21.7348 35.8946 21.4804 35.7071 21.2929C35.5196 21.1054 35.2652 21 35 21ZM23 31.95V31C23 30.7348 22.8946 30.4804 22.7071 30.2929C22.5196 30.1054 22.2652 30 22 30C21.7348 30 21.4804 30.1054 21.2929 30.2929C21.1054 30.4804 21 30.7348 21 31V31.95C18.7061 31.7159 16.5631 30.6978 14.9327 29.0673C13.3022 27.4369 12.2841 25.2939 12.05 23H13C13.2652 23 13.5196 22.8946 13.7071 22.7071C13.8946 22.5196 14 22.2652 14 22C14 21.7348 13.8946 21.4804 13.7071 21.2929C13.5196 21.1054 13.2652 21 13 21H12.05C12.2841 18.7061 13.3022 16.5631 14.9327 14.9327C16.5631 13.3022 18.7061 12.2841 21 12.05V13C21 13.2652 21.1054 13.5196 21.2929 13.7071C21.4804 13.8946 21.7348 14 22 14C22.2652 14 22.5196 13.8946 22.7071 13.7071C22.8946 13.5196 23 13.2652 23 13V12.05C25.2939 12.2841 27.4369 13.3022 29.0673 14.9327C30.6978 16.5631 31.7159 18.7061 31.95 21H31C30.7348 21 30.4804 21.1054 30.2929 21.2929C30.1054 21.4804 30 21.7348 30 22C30 22.2652 30.1054 22.5196 30.2929 22.7071C30.4804 22.8946 30.7348 23 31 23H31.95C31.7159 25.2939 30.6978 27.4369 29.0673 29.0673C27.4369 30.6978 25.2939 31.7159 23 31.95ZM22 17C21.0111 17 20.0444 17.2932 19.2221 17.8427C18.3999 18.3921 17.759 19.173 17.3806 20.0866C17.0022 21.0002 16.9031 22.0055 17.0961 22.9755C17.289 23.9454 17.7652 24.8363 18.4645 25.5355C19.1637 26.2348 20.0546 26.711 21.0245 26.9039C21.9945 27.0969 22.9998 26.9978 23.9134 26.6194C24.827 26.241 25.6079 25.6001 26.1573 24.7779C26.7068 23.9556 27 22.9889 27 22C27 20.6739 26.4732 19.4021 25.5355 18.4645C24.5979 17.5268 23.3261 17 22 17ZM22 25C21.4067 25 20.8266 24.8241 20.3333 24.4944C19.8399 24.1648 19.4554 23.6962 19.2284 23.1481C19.0013 22.5999 18.9419 21.9967 19.0576 21.4147C19.1734 20.8328 19.4591 20.2982 19.8787 19.8787C20.2982 19.4591 20.8328 19.1734 21.4147 19.0576C21.9967 18.9419 22.5999 19.0013 23.1481 19.2284C23.6962 19.4554 24.1648 19.8399 24.4944 20.3333C24.8241 20.8266 25 21.4067 25 22C25 22.7956 24.6839 23.5587 24.1213 24.1213C23.5587 24.6839 22.7956 25 22 25Z" fill="white"/>
</svg>
