<svg width="33" height="32" viewBox="0 0 33 32" fill="none" xmlns="http://www.w3.org/2000/svg">
<path d="M13.9703 5H7.97034C7.4399 5 6.9312 5.21071 6.55612 5.58579C6.18105 5.96086 5.97034 6.46957 5.97034 7V13C5.97034 13.5304 6.18105 14.0391 6.55612 14.4142C6.9312 14.7893 7.4399 15 7.97034 15H13.9703C14.5008 15 15.0095 14.7893 15.3846 14.4142C15.7596 14.0391 15.9703 13.5304 15.9703 13V7C15.9703 6.46957 15.7596 5.96086 15.3846 5.58579C15.0095 5.21071 14.5008 5 13.9703 5ZM13.9703 13H7.97034V7H13.9703V13ZM13.9703 17H7.97034C7.4399 17 6.9312 17.2107 6.55612 17.5858C6.18105 17.9609 5.97034 18.4696 5.97034 19V25C5.97034 25.5304 6.18105 26.0391 6.55612 26.4142C6.9312 26.7893 7.4399 27 7.97034 27H13.9703C14.5008 27 15.0095 26.7893 15.3846 26.4142C15.7596 26.0391 15.9703 25.5304 15.9703 25V19C15.9703 18.4696 15.7596 17.9609 15.3846 17.5858C15.0095 17.2107 14.5008 17 13.9703 17ZM13.9703 25H7.97034V19H13.9703V25ZM25.9703 5H19.9703C19.4399 5 18.9312 5.21071 18.5561 5.58579C18.1811 5.96086 17.9703 6.46957 17.9703 7V13C17.9703 13.5304 18.1811 14.0391 18.5561 14.4142C18.9312 14.7893 19.4399 15 19.9703 15H25.9703C26.5008 15 27.0095 14.7893 27.3846 14.4142C27.7596 14.0391 27.9703 13.5304 27.9703 13V7C27.9703 6.46957 27.7596 5.96086 27.3846 5.58579C27.0095 5.21071 26.5008 5 25.9703 5ZM25.9703 13H19.9703V7H25.9703V13ZM17.9703 22V18C17.9703 17.7348 18.0757 17.4804 18.2632 17.2929C18.4508 17.1054 18.7051 17 18.9703 17C19.2356 17 19.4899 17.1054 19.6774 17.2929C19.865 17.4804 19.9703 17.7348 19.9703 18V22C19.9703 22.2652 19.865 22.5196 19.6774 22.7071C19.4899 22.8946 19.2356 23 18.9703 23C18.7051 23 18.4508 22.8946 18.2632 22.7071C18.0757 22.5196 17.9703 22.2652 17.9703 22ZM27.9703 20C27.9703 20.2652 27.865 20.5196 27.6774 20.7071C27.4899 20.8946 27.2356 21 26.9703 21H23.9703V26C23.9703 26.2652 23.865 26.5196 23.6774 26.7071C23.4899 26.8946 23.2356 27 22.9703 27H18.9703C18.7051 27 18.4508 26.8946 18.2632 26.7071C18.0757 26.5196 17.9703 26.2652 17.9703 26C17.9703 25.7348 18.0757 25.4804 18.2632 25.2929C18.4508 25.1054 18.7051 25 18.9703 25H21.9703V18C21.9703 17.7348 22.0757 17.4804 22.2632 17.2929C22.4508 17.1054 22.7051 17 22.9703 17C23.2356 17 23.4899 17.1054 23.6774 17.2929C23.865 17.4804 23.9703 17.7348 23.9703 18V19H26.9703C27.2356 19 27.4899 19.1054 27.6774 19.2929C27.865 19.4804 27.9703 19.7348 27.9703 20ZM27.9703 24V26C27.9703 26.2652 27.865 26.5196 27.6774 26.7071C27.4899 26.8946 27.2356 27 26.9703 27C26.7051 27 26.4508 26.8946 26.2632 26.7071C26.0757 26.5196 25.9703 26.2652 25.9703 26V24C25.9703 23.7348 26.0757 23.4804 26.2632 23.2929C26.4508 23.1054 26.7051 23 26.9703 23C27.2356 23 27.4899 23.1054 27.6774 23.2929C27.865 23.4804 27.9703 23.7348 27.9703 24Z" fill="black"/>
</svg>
