<svg width="33" height="32" viewBox="0 0 33 32" fill="none" xmlns="http://www.w3.org/2000/svg">
<path d="M29.8353 26.5C27.9316 23.2088 24.9978 20.8488 21.5741 19.73C23.2676 18.7218 24.5834 17.1856 25.3193 15.3573C26.0553 13.5289 26.1707 11.5095 25.6479 9.60921C25.1251 7.7089 23.9929 6.03275 22.4253 4.83817C20.8576 3.64358 18.9412 2.99661 16.9703 2.99661C14.9994 2.99661 13.083 3.64358 11.5153 4.83817C9.94771 6.03275 8.81555 7.7089 8.29273 9.60921C7.76992 11.5095 7.88534 13.5289 8.62129 15.3573C9.35724 17.1856 10.673 18.7218 12.3666 19.73C8.94281 20.8475 6.00906 23.2075 4.10531 26.5C4.0355 26.6138 3.98919 26.7405 3.96912 26.8725C3.94905 27.0046 3.95563 27.1393 3.98846 27.2687C4.0213 27.3981 4.07973 27.5197 4.1603 27.6262C4.24087 27.7327 4.34196 27.8219 4.45759 27.8887C4.57322 27.9555 4.70106 27.9985 4.83357 28.0151C4.96607 28.0317 5.10056 28.0215 5.22909 27.9853C5.35761 27.9491 5.47759 27.8875 5.58192 27.8041C5.68625 27.7208 5.77284 27.6174 5.83656 27.5C8.19156 23.43 12.3541 21 16.9703 21C21.5866 21 25.7491 23.43 28.1041 27.5C28.1678 27.6174 28.2544 27.7208 28.3587 27.8041C28.463 27.8875 28.583 27.9491 28.7115 27.9853C28.8401 28.0215 28.9745 28.0317 29.107 28.0151C29.2396 27.9985 29.3674 27.9555 29.483 27.8887C29.5987 27.8219 29.6997 27.7327 29.7803 27.6262C29.8609 27.5197 29.9193 27.3981 29.9522 27.2687C29.985 27.1393 29.9916 27.0046 29.9715 26.8725C29.9514 26.7405 29.9051 26.6138 29.8353 26.5ZM9.97031 12C9.97031 10.6155 10.3809 9.26217 11.15 8.11102C11.9192 6.95988 13.0124 6.06267 14.2915 5.53286C15.5706 5.00304 16.9781 4.86442 18.3359 5.13452C19.6938 5.40461 20.9411 6.0713 21.9201 7.05027C22.899 8.02923 23.5657 9.27651 23.8358 10.6344C24.1059 11.9922 23.9673 13.3997 23.4375 14.6788C22.9077 15.9579 22.0104 17.0511 20.8593 17.8203C19.7082 18.5895 18.3548 19 16.9703 19C15.1144 18.998 13.3351 18.2599 12.0228 16.9476C10.7104 15.6352 9.97229 13.8559 9.97031 12Z" fill="black"/>
</svg>
