<svg width="27" height="27" viewBox="0 0 27 27" fill="none" xmlns="http://www.w3.org/2000/svg">
<path d="M13.7158 0.0531158C11.1447 0.0531158 8.63125 0.815553 6.49341 2.24401C4.35557 3.67247 2.68933 5.70279 1.70539 8.07823C0.721453 10.4537 0.46401 13.0675 0.965618 15.5893C1.46723 18.111 2.70536 20.4274 4.52344 22.2455C6.34152 24.0636 8.6579 25.3017 11.1797 25.8033C13.7014 26.3049 16.3153 26.0475 18.6907 25.0635C21.0661 24.0796 23.0965 22.4134 24.5249 20.2755C25.9534 18.1377 26.7158 15.6243 26.7158 13.0531C26.7122 9.60642 25.3414 6.30193 22.9042 3.86475C20.467 1.42756 17.1625 0.0567556 13.7158 0.0531158ZM13.7158 24.0531C11.5402 24.0531 9.41349 23.408 7.60455 22.1993C5.79561 20.9906 4.38572 19.2726 3.55315 17.2626C2.72059 15.2526 2.50275 13.0409 2.92719 10.9071C3.35163 8.77333 4.39927 6.81332 5.93765 5.27494C7.47603 3.73656 9.43604 2.68892 11.5698 2.26448C13.7036 1.84004 15.9154 2.05788 17.9253 2.89044C19.9353 3.723 21.6533 5.1329 22.862 6.94184C24.0707 8.75078 24.7158 10.8775 24.7158 13.0531C24.7125 15.9695 23.5525 18.7655 21.4903 20.8276C19.4282 22.8898 16.6322 24.0498 13.7158 24.0531ZM18.7158 15.5531C18.7158 16.4814 18.3471 17.3716 17.6907 18.028C17.0343 18.6844 16.1441 19.0531 15.2158 19.0531H14.7158V20.0531C14.7158 20.3183 14.6105 20.5727 14.4229 20.7602C14.2354 20.9478 13.981 21.0531 13.7158 21.0531C13.4506 21.0531 13.1963 20.9478 13.0087 20.7602C12.8212 20.5727 12.7158 20.3183 12.7158 20.0531V19.0531H10.7158C10.4506 19.0531 10.1963 18.9478 10.0087 18.7602C9.82118 18.5727 9.71583 18.3183 9.71583 18.0531C9.71583 17.7879 9.82118 17.5335 10.0087 17.346C10.1963 17.1585 10.4506 17.0531 10.7158 17.0531H15.2158C15.6137 17.0531 15.9952 16.8951 16.2765 16.6138C16.5578 16.3325 16.7158 15.9509 16.7158 15.5531C16.7158 15.1553 16.5578 14.7738 16.2765 14.4925C15.9952 14.2112 15.6137 14.0531 15.2158 14.0531H12.2158C11.2876 14.0531 10.3973 13.6844 9.74095 13.028C9.08458 12.3716 8.71583 11.4814 8.71583 10.5531C8.71583 9.62486 9.08458 8.73462 9.74095 8.07824C10.3973 7.42186 11.2876 7.05312 12.2158 7.05312H12.7158V6.05312C12.7158 5.7879 12.8212 5.53355 13.0087 5.34601C13.1963 5.15847 13.4506 5.05312 13.7158 5.05312C13.981 5.05312 14.2354 5.15847 14.4229 5.34601C14.6105 5.53355 14.7158 5.7879 14.7158 6.05312V7.05312H16.7158C16.981 7.05312 17.2354 7.15847 17.4229 7.34601C17.6105 7.53355 17.7158 7.7879 17.7158 8.05312C17.7158 8.31833 17.6105 8.57269 17.4229 8.76022C17.2354 8.94776 16.981 9.05312 16.7158 9.05312H12.2158C11.818 9.05312 11.4365 9.21115 11.1552 9.49246C10.8739 9.77376 10.7158 10.1553 10.7158 10.5531C10.7158 10.9509 10.8739 11.3325 11.1552 11.6138C11.4365 11.8951 11.818 12.0531 12.2158 12.0531H15.2158C16.1441 12.0531 17.0343 12.4219 17.6907 13.0782C18.3471 13.7346 18.7158 14.6249 18.7158 15.5531Z" fill="white"/>
</svg>
