<svg width="33" height="33" viewBox="0 0 33 33" fill="none" xmlns="http://www.w3.org/2000/svg">
<path d="M16.7158 3.05312C14.1447 3.05312 11.6313 3.81555 9.49341 5.24401C7.35557 6.67247 5.68933 8.70279 4.70539 11.0782C3.72145 13.4537 3.46401 16.0675 3.96562 18.5893C4.46723 21.111 5.70536 23.4274 7.52344 25.2455C9.34152 27.0636 11.6579 28.3017 14.1797 28.8033C16.7014 29.3049 19.3153 29.0475 21.6907 28.0635C24.0661 27.0796 26.0965 25.4134 27.5249 23.2755C28.9534 21.1377 29.7158 18.6243 29.7158 16.0531C29.7122 12.6064 28.3414 9.30193 25.9042 6.86475C23.467 4.42756 20.1625 3.05676 16.7158 3.05312ZM16.7158 27.0531C14.5402 27.0531 12.4135 26.408 10.6046 25.1993C8.79561 23.9906 7.38572 22.2726 6.55315 20.2626C5.72059 18.2526 5.50275 16.0409 5.92719 13.9071C6.35163 11.7733 7.39927 9.81332 8.93765 8.27494C10.476 6.73656 12.436 5.68892 14.5698 5.26448C16.7036 4.84004 18.9154 5.05788 20.9253 5.89044C22.9353 6.723 24.6533 8.1329 25.862 9.94184C27.0707 11.7508 27.7158 13.8775 27.7158 16.0531C27.7125 18.9695 26.5525 21.7655 24.4903 23.8276C22.4282 25.8898 19.6322 27.0498 16.7158 27.0531ZM21.7158 18.5531C21.7158 19.4814 21.3471 20.3716 20.6907 21.028C20.0343 21.6844 19.1441 22.0531 18.2158 22.0531H17.7158V23.0531C17.7158 23.3183 17.6105 23.5727 17.4229 23.7602C17.2354 23.9478 16.981 24.0531 16.7158 24.0531C16.4506 24.0531 16.1963 23.9478 16.0087 23.7602C15.8212 23.5727 15.7158 23.3183 15.7158 23.0531V22.0531H13.7158C13.4506 22.0531 13.1963 21.9478 13.0087 21.7602C12.8212 21.5727 12.7158 21.3183 12.7158 21.0531C12.7158 20.7879 12.8212 20.5335 13.0087 20.346C13.1963 20.1585 13.4506 20.0531 13.7158 20.0531H18.2158C18.6137 20.0531 18.9952 19.8951 19.2765 19.6138C19.5578 19.3325 19.7158 18.9509 19.7158 18.5531C19.7158 18.1553 19.5578 17.7738 19.2765 17.4925C18.9952 17.2112 18.6137 17.0531 18.2158 17.0531H15.2158C14.2876 17.0531 13.3973 16.6844 12.741 16.028C12.0846 15.3716 11.7158 14.4814 11.7158 13.5531C11.7158 12.6249 12.0846 11.7346 12.741 11.0782C13.3973 10.4219 14.2876 10.0531 15.2158 10.0531H15.7158V9.05312C15.7158 8.7879 15.8212 8.53355 16.0087 8.34601C16.1963 8.15847 16.4506 8.05312 16.7158 8.05312C16.981 8.05312 17.2354 8.15847 17.4229 8.34601C17.6105 8.53355 17.7158 8.7879 17.7158 9.05312V10.0531H19.7158C19.981 10.0531 20.2354 10.1585 20.4229 10.346C20.6105 10.5335 20.7158 10.7879 20.7158 11.0531C20.7158 11.3183 20.6105 11.5727 20.4229 11.7602C20.2354 11.9478 19.981 12.0531 19.7158 12.0531H15.2158C14.818 12.0531 14.4365 12.2112 14.1552 12.4925C13.8739 12.7738 13.7158 13.1553 13.7158 13.5531C13.7158 13.9509 13.8739 14.3325 14.1552 14.6138C14.4365 14.8951 14.818 15.0531 15.2158 15.0531H18.2158C19.1441 15.0531 20.0343 15.4219 20.6907 16.0782C21.3471 16.7346 21.7158 17.6249 21.7158 18.5531Z" />
</svg>
