<svg width="12" height="12" viewBox="0 0 12 12" fill="none" xmlns="http://www.w3.org/2000/svg">
<path d="M5.99316 11.5179V11.0358H3.46548H0.937797V5.98697V0.938111H3.46548H5.99316V0.469055V0H2.99643H-0.000313282V6V12H2.99643H5.99316V11.5179Z" fill="white"/>
<path d="M4.00001 5.7C4.00001 5.58954 4.08955 5.5 4.20001 5.5H10.0867L7.43476 2.84809C7.35666 2.76998 7.35666 2.64335 7.43476 2.56525L7.85858 2.14142C7.93669 2.06332 8.06332 2.06332 8.14143 2.14142L11.8586 5.85858C11.9367 5.93668 11.9367 6.06332 11.8586 6.14142L8.14143 9.85858C8.06332 9.93668 7.93669 9.93668 7.85858 9.85858L7.43476 9.43475C7.35666 9.35665 7.35666 9.23002 7.43476 9.15191L10.0867 6.5H4.20001C4.08955 6.5 4.00001 6.41046 4.00001 6.3V5.7Z" fill="white"/>
</svg>
