<svg width="10" height="13" viewBox="0 0 10 13" fill="none" xmlns="http://www.w3.org/2000/svg">
<path fill-rule="evenodd" clip-rule="evenodd" d="M5.78571 10.075H4.21429V5.83967H0.486912C0.30816 5.83967 0.219187 5.62306 0.34633 5.49741L4.85942 1.03742C4.93733 0.960427 5.06267 0.960427 5.14058 1.03742L9.65367 5.49741C9.78081 5.62306 9.69184 5.83967 9.51309 5.83967H5.78571V10.075ZM0.2 11.4867C0.089543 11.4867 0 11.5763 0 11.6867V12.6985C0 12.809 0.0895429 12.8985 0.2 12.8985H9.8C9.91046 12.8985 10 12.809 10 12.6985V11.6867C10 11.5763 9.91046 11.4867 9.8 11.4867H0.2Z" fill="white"/>
</svg>
