<svg width="10" height="13" viewBox="0 0 10 13" fill="none" xmlns="http://www.w3.org/2000/svg">
<path fill-rule="evenodd" clip-rule="evenodd" d="M5.78571 10.075H4.21429V5.83973H0.486912C0.30816 5.83973 0.219187 5.62312 0.34633 5.49747L4.85942 1.03748C4.93733 0.960488 5.06267 0.960488 5.14058 1.03748L9.65367 5.49747C9.78081 5.62312 9.69184 5.83973 9.51309 5.83973H5.78571V10.075ZM0.2 11.4868C0.089543 11.4868 0 11.5763 0 11.6868V12.6986C0 12.809 0.0895429 12.8986 0.2 12.8986H9.8C9.91046 12.8986 10 12.809 10 12.6986V11.6868C10 11.5763 9.91046 11.4868 9.8 11.4868H0.2Z" fill="#212134"/>
</svg>
