<svg width="33" height="32" viewBox="0 0 33 32" fill="none" xmlns="http://www.w3.org/2000/svg">
<path d="M28.3841 10L22.9703 4.58626C22.7853 4.39973 22.565 4.25185 22.3223 4.15121C22.0796 4.05057 21.8193 3.99917 21.5566 4.00001H6.97034C6.4399 4.00001 5.9312 4.21072 5.55612 4.5858C5.18105 4.96087 4.97034 5.46958 4.97034 6.00001V26C4.97034 26.5304 5.18105 27.0392 5.55612 27.4142C5.9312 27.7893 6.4399 28 6.97034 28H26.9703C27.5008 28 28.0095 27.7893 28.3846 27.4142C28.7596 27.0392 28.9703 26.5304 28.9703 26V11.4138C28.9712 11.151 28.9198 10.8907 28.8191 10.648C28.7185 10.4053 28.5706 10.1851 28.3841 10ZM21.9703 26H11.9703V19H21.9703V26ZM26.9703 26H23.9703V19C23.9703 18.4696 23.7596 17.9609 23.3846 17.5858C23.0095 17.2107 22.5008 17 21.9703 17H11.9703C11.4399 17 10.9312 17.2107 10.5561 17.5858C10.1811 17.9609 9.97034 18.4696 9.97034 19V26H6.97034V6.00001H21.5566L26.9703 11.4138V26ZM20.9703 9.00001C20.9703 9.26523 20.865 9.51958 20.6774 9.70712C20.4899 9.89465 20.2356 10 19.9703 10H12.9703C12.7051 10 12.4508 9.89465 12.2632 9.70712C12.0757 9.51958 11.9703 9.26523 11.9703 9.00001C11.9703 8.73479 12.0757 8.48044 12.2632 8.2929C12.4508 8.10537 12.7051 8.00001 12.9703 8.00001H19.9703C20.2356 8.00001 20.4899 8.10537 20.6774 8.2929C20.865 8.48044 20.9703 8.73479 20.9703 9.00001Z" />
</svg>
