<svg width="105" height="105" viewBox="0 0 105 105" fill="none" xmlns="http://www.w3.org/2000/svg">
<path d="M86.8193 45.6453H84V45.5H52.5V59.5H72.2803C69.3945 67.6497 61.6403 73.5 52.5 73.5C40.9028 73.5 31.5 64.0972 31.5 52.5C31.5 40.9028 40.9028 31.5 52.5 31.5C57.8532 31.5 62.7235 33.5195 66.4318 36.8182L76.3315 26.9185C70.0805 21.0928 61.719 17.5 52.5 17.5C33.1712 17.5 17.5 33.1712 17.5 52.5C17.5 71.8288 33.1712 87.5 52.5 87.5C71.8288 87.5 87.5 71.8288 87.5 52.5C87.5 50.1533 87.2585 47.8625 86.8193 45.6453Z" fill="#FFC107"/>
<path d="M21.5353 36.2093L33.0346 44.6425C36.1461 36.939 43.6816 31.5 52.4998 31.5C57.8531 31.5 62.7233 33.5195 66.4316 36.8183L76.3313 26.9185C70.0803 21.0928 61.7188 17.5 52.4998 17.5C39.0563 17.5 27.3978 25.0898 21.5353 36.2093Z" fill="#FF3D00"/>
<path d="M52.5001 87.4999C61.5406 87.4999 69.7551 84.0402 75.9659 78.4139L65.1334 69.2474C61.6194 71.9092 57.2514 73.4999 52.5001 73.4999C43.3966 73.4999 35.6669 67.6952 32.7549 59.5944L21.3414 68.3882C27.1339 79.7229 38.8974 87.4999 52.5001 87.4999Z" fill="#4CAF50"/>
<path d="M86.8193 45.6453H84V45.5H52.5V59.5H72.2803C70.8943 63.4147 68.376 66.7905 65.128 69.2492C65.1297 69.2475 65.1315 69.2475 65.1332 69.2457L75.9658 78.4122C75.1993 79.1087 87.5 70 87.5 52.5C87.5 50.1532 87.2585 47.8625 86.8193 45.6453Z" fill="#1976D2"/>
</svg>
