<svg width="33" height="32" viewBox="0 0 33 32" fill="none" xmlns="http://www.w3.org/2000/svg">
<g clip-path="url(#clip0_7_335)">
<path d="M29.7616 17.6325C29.3895 17.3462 28.9563 17.1496 28.4959 17.0578C28.0354 16.9661 27.56 16.9819 27.1066 17.1038L21.8766 18.3063C21.9983 17.7922 22.002 17.2574 21.8876 16.7417C21.7731 16.226 21.5435 15.7429 21.2158 15.3287C20.8881 14.9144 20.4709 14.5797 19.9954 14.3495C19.5199 14.1194 18.9986 13.9999 18.4703 14H12.2128C11.6873 13.9987 11.1668 14.1015 10.6813 14.3025C10.1957 14.5036 9.75484 14.7988 9.38409 15.1713L6.55659 18H2.97034C2.4399 18 1.9312 18.2107 1.55612 18.5858C1.18105 18.9609 0.970337 19.4696 0.970337 20L0.970337 25C0.970337 25.5304 1.18105 26.0391 1.55612 26.4142C1.9312 26.7893 2.4399 27 2.97034 27H15.9703C16.0521 27 16.1336 26.99 16.2128 26.97L24.2128 24.97C24.2638 24.9579 24.3136 24.9411 24.3616 24.92L29.2203 22.8525L29.2753 22.8275C29.7423 22.5942 30.1422 22.2458 30.4373 21.8152C30.7324 21.3846 30.913 20.886 30.9622 20.3663C31.0113 19.8466 30.9274 19.3229 30.7182 18.8447C30.509 18.3664 30.1815 17.9492 29.7666 17.6325H29.7616ZM2.97034 20H5.97034V25H2.97034V20ZM28.3991 21.0263L23.6491 23.0488L15.8453 25H7.97034V19.4138L10.7991 16.5863C10.9841 16.3997 11.2044 16.2518 11.4471 16.1512C11.6898 16.0506 11.9501 15.9992 12.2128 16H18.4703C18.8682 16 19.2497 16.158 19.531 16.4393C19.8123 16.7206 19.9703 17.1022 19.9703 17.5C19.9703 17.8978 19.8123 18.2794 19.531 18.5607C19.2497 18.842 18.8682 19 18.4703 19H14.9703C14.7051 19 14.4508 19.1054 14.2632 19.2929C14.0757 19.4804 13.9703 19.7348 13.9703 20C13.9703 20.2652 14.0757 20.5196 14.2632 20.7071C14.4508 20.8946 14.7051 21 14.9703 21H18.9703C19.0456 20.9998 19.1206 20.9914 19.1941 20.975L27.5691 19.0488L27.6078 19.0388C27.8635 18.9678 28.1364 18.9939 28.374 19.112C28.6116 19.2301 28.7971 19.4319 28.8948 19.6786C28.9925 19.9253 28.9956 20.1994 28.9034 20.4482C28.8112 20.697 28.6302 20.9029 28.3953 21.0263H28.3991ZM21.4703 12C21.7174 12.0003 21.9641 11.9802 22.2078 11.94C22.482 12.7544 22.9837 13.4733 23.6535 14.0117C24.3233 14.55 25.1333 14.8854 25.9876 14.978C26.8419 15.0706 27.7049 14.9167 28.4746 14.5344C29.2442 14.1521 29.8883 13.5574 30.3306 12.8206C30.773 12.0839 30.9951 11.2359 30.9708 10.3769C30.9465 9.51787 30.6767 8.68379 30.1934 7.97325C29.7101 7.2627 29.0334 6.7054 28.2434 6.36724C27.4534 6.02909 26.5831 5.9242 25.7353 6.065C25.4713 5.28031 24.9959 4.58366 24.3615 4.05172C23.7271 3.51979 22.9582 3.17318 22.1395 3.05005C21.3208 2.92692 20.484 3.03203 19.7212 3.35383C18.9584 3.67563 18.2991 4.20163 17.816 4.87396C17.3328 5.54628 17.0445 6.33886 16.9828 7.16447C16.9211 7.99008 17.0883 8.81672 17.4661 9.55342C17.8439 10.2901 18.4176 10.9083 19.1241 11.34C19.8305 11.7716 20.6424 12 21.4703 12ZM28.9703 10.5C28.9703 10.9945 28.8237 11.4778 28.549 11.8889C28.2743 12.3001 27.8839 12.6205 27.427 12.8097C26.9702 12.9989 26.4676 13.0484 25.9826 12.952C25.4977 12.8555 25.0522 12.6174 24.7026 12.2678C24.3529 11.9181 24.1148 11.4727 24.0184 10.9877C23.9219 10.5028 23.9714 10.0001 24.1606 9.54329C24.3499 9.08648 24.6703 8.69603 25.0814 8.42133C25.4925 8.14662 25.9759 8 26.4703 8C27.1334 8 27.7693 8.26339 28.2381 8.73223C28.7069 9.20108 28.9703 9.83696 28.9703 10.5ZM21.4703 5C22.0157 5.00027 22.5461 5.17888 22.9805 5.5086C23.4149 5.83832 23.7296 6.30105 23.8766 6.82625C23.3644 7.18662 22.9331 7.64992 22.6103 8.18652C22.2874 8.72312 22.0801 9.3212 22.0016 9.9425C21.827 9.9802 21.6489 9.99948 21.4703 10C20.8073 10 20.1714 9.73661 19.7026 9.26777C19.2337 8.79893 18.9703 8.16304 18.9703 7.5C18.9703 6.83696 19.2337 6.20108 19.7026 5.73223C20.1714 5.26339 20.8073 5 21.4703 5Z" fill="white"/>
</g>
<defs>
<clipPath id="clip0_7_335">
<rect width="32" height="32" fill="white" transform="translate(0.970337)"/>
</clipPath>
</defs>
</svg>
