<svg width="25" height="26" viewBox="0 0 25 26" fill="none" xmlns="http://www.w3.org/2000/svg">
<path d="M24.0032 10.4476L14.0032 1.01258C13.9983 1.00831 13.9937 1.00372 13.9894 0.998829C13.6212 0.663995 13.1415 0.478455 12.6438 0.478455C12.1461 0.478455 11.6663 0.663995 11.2982 0.998829L11.2844 1.01258L1.29566 10.4476C1.09191 10.6349 0.929269 10.8626 0.818028 11.116C0.706788 11.3695 0.649372 11.6433 0.649414 11.9201V23.4763C0.649414 24.0068 0.860128 24.5155 1.2352 24.8905C1.61027 25.2656 2.11898 25.4763 2.64941 25.4763H8.64941C9.17985 25.4763 9.68855 25.2656 10.0636 24.8905C10.4387 24.5155 10.6494 24.0068 10.6494 23.4763V17.4763H14.6494V23.4763C14.6494 24.0068 14.8601 24.5155 15.2352 24.8905C15.6103 25.2656 16.119 25.4763 16.6494 25.4763H22.6494C23.1798 25.4763 23.6886 25.2656 24.0636 24.8905C24.4387 24.5155 24.6494 24.0068 24.6494 23.4763V11.9201C24.6495 11.6433 24.592 11.3695 24.4808 11.116C24.3696 10.8626 24.2069 10.6349 24.0032 10.4476ZM22.6494 23.4763H16.6494V17.4763C16.6494 16.9459 16.4387 16.4372 16.0636 16.0621C15.6886 15.687 15.1798 15.4763 14.6494 15.4763H10.6494C10.119 15.4763 9.61027 15.687 9.2352 16.0621C8.86013 16.4372 8.64941 16.9459 8.64941 17.4763V23.4763H2.64941V11.9201L2.66316 11.9076L12.6494 2.47633L22.6369 11.9051L22.6507 11.9176L22.6494 23.4763Z" />
</svg>
