<svg width="33" height="33" viewBox="0 0 33 33" fill="none" xmlns="http://www.w3.org/2000/svg">
<path d="M28.0032 13.4476L18.0032 4.01258C17.9983 4.00831 17.9937 4.00372 17.9894 3.99883C17.6212 3.664 17.1415 3.47845 16.6438 3.47845C16.1461 3.47845 15.6663 3.664 15.2982 3.99883L15.2844 4.01258L5.29566 13.4476C5.09191 13.6349 4.92927 13.8626 4.81803 14.116C4.70679 14.3695 4.64937 14.6433 4.64941 14.9201V26.4763C4.64941 27.0068 4.86013 27.5155 5.2352 27.8905C5.61027 28.2656 6.11898 28.4763 6.64941 28.4763H12.6494C13.1798 28.4763 13.6886 28.2656 14.0636 27.8905C14.4387 27.5155 14.6494 27.0068 14.6494 26.4763V20.4763H18.6494V26.4763C18.6494 27.0068 18.8601 27.5155 19.2352 27.8905C19.6103 28.2656 20.119 28.4763 20.6494 28.4763H26.6494C27.1798 28.4763 27.6886 28.2656 28.0636 27.8905C28.4387 27.5155 28.6494 27.0068 28.6494 26.4763V14.9201C28.6495 14.6433 28.592 14.3695 28.4808 14.116C28.3696 13.8626 28.2069 13.6349 28.0032 13.4476ZM26.6494 26.4763H20.6494V20.4763C20.6494 19.9459 20.4387 19.4372 20.0636 19.0621C19.6886 18.687 19.1798 18.4763 18.6494 18.4763H14.6494C14.119 18.4763 13.6103 18.687 13.2352 19.0621C12.8601 19.4372 12.6494 19.9459 12.6494 20.4763V26.4763H6.64941V14.9201L6.66316 14.9076L16.6494 5.47633L26.6369 14.9051L26.6507 14.9176L26.6494 26.4763Z"/>
</svg>
