<svg width="17" height="16" viewBox="0 0 17 16" fill="none" xmlns="http://www.w3.org/2000/svg">
<path fill-rule="evenodd" clip-rule="evenodd" d="M3.26558 1.99382V0H5.19863V1.99382H12.1742V0H14.1072V1.99382H14.5271C16.3728 1.99382 16.6627 2.32511 16.6865 3.94424V14.0004C16.6865 15.416 16.5591 16 14.8186 16H2.56529C0.824835 16 0.686523 15.5756 0.686523 13.8569V4.14021C0.70989 2.77398 0.842065 1.99382 2.68732 1.99382L3.26558 1.99382ZM2.23348 13.5788C2.23348 14.1196 2.39658 14.1555 2.75062 14.1555H14.6874C15.041 14.1555 15.1401 14.1471 15.1401 13.6054V5.48897C15.1302 5.07089 14.9947 4.9974 14.7198 4.9974H2.62434C2.34914 4.9974 2.22971 5.05782 2.23349 5.37955L2.23348 13.5788Z" fill="#8E8EA9"/>
</svg>
