<svg width="9" height="10" viewBox="0 0 9 10" fill="none" xmlns="http://www.w3.org/2000/svg">
<path d="M9 7.21V8.978C9.00006 9.10459 8.9521 9.22649 8.8658 9.3191C8.7795 9.41171 8.66128 9.46814 8.535 9.477C8.3165 9.492 8.138 9.5 8 9.5C3.5815 9.5 0 5.9185 0 1.5C0 1.362 0.0075 1.1835 0.023 0.965C0.0318612 0.838722 0.0882906 0.720505 0.180902 0.634204C0.273513 0.547903 0.395411 0.499943 0.522 0.5H2.29C2.35202 0.499937 2.41185 0.52293 2.45786 0.56451C2.50388 0.606091 2.5328 0.663291 2.539 0.725C2.5505 0.84 2.561 0.9315 2.571 1.001C2.67037 1.69446 2.874 2.36892 3.175 3.0015C3.2225 3.1015 3.1915 3.221 3.1015 3.285L2.0225 4.056C2.68223 5.59323 3.90727 6.81827 5.4445 7.478L6.2145 6.401C6.24597 6.357 6.29189 6.32544 6.34425 6.31183C6.3966 6.29821 6.45208 6.3034 6.501 6.3265C7.13351 6.62693 7.80779 6.83006 8.501 6.929C8.5705 6.939 8.662 6.95 8.776 6.961C8.83762 6.96732 8.8947 6.99629 8.93618 7.04229C8.97765 7.08829 9.00058 7.14806 9.0005 7.21H9Z" fill="white"/>
</svg>
