<svg width="33" height="32" viewBox="0 0 33 32" fill="none" xmlns="http://www.w3.org/2000/svg">
<path d="M28.9703 5V10C28.9703 10.2652 28.865 10.5196 28.6774 10.7071C28.4899 10.8946 28.2356 11 27.9703 11C27.7051 11 27.4508 10.8946 27.2632 10.7071C27.0757 10.5196 26.9703 10.2652 26.9703 10V6H22.9703C22.7051 6 22.4508 5.89464 22.2632 5.70711C22.0757 5.51957 21.9703 5.26522 21.9703 5C21.9703 4.73478 22.0757 4.48043 22.2632 4.29289C22.4508 4.10536 22.7051 4 22.9703 4H27.9703C28.2356 4 28.4899 4.10536 28.6774 4.29289C28.865 4.48043 28.9703 4.73478 28.9703 5ZM10.9703 26H6.97034V22C6.97034 21.7348 6.86498 21.4804 6.67744 21.2929C6.48991 21.1054 6.23555 21 5.97034 21C5.70512 21 5.45077 21.1054 5.26323 21.2929C5.07569 21.4804 4.97034 21.7348 4.97034 22V27C4.97034 27.2652 5.07569 27.5196 5.26323 27.7071C5.45077 27.8946 5.70512 28 5.97034 28H10.9703C11.2356 28 11.4899 27.8946 11.6774 27.7071C11.865 27.5196 11.9703 27.2652 11.9703 27C11.9703 26.7348 11.865 26.4804 11.6774 26.2929C11.4899 26.1054 11.2356 26 10.9703 26ZM27.9703 21C27.7051 21 27.4508 21.1054 27.2632 21.2929C27.0757 21.4804 26.9703 21.7348 26.9703 22V26H22.9703C22.7051 26 22.4508 26.1054 22.2632 26.2929C22.0757 26.4804 21.9703 26.7348 21.9703 27C21.9703 27.2652 22.0757 27.5196 22.2632 27.7071C22.4508 27.8946 22.7051 28 22.9703 28H27.9703C28.2356 28 28.4899 27.8946 28.6774 27.7071C28.865 27.5196 28.9703 27.2652 28.9703 27V22C28.9703 21.7348 28.865 21.4804 28.6774 21.2929C28.4899 21.1054 28.2356 21 27.9703 21ZM5.97034 11C6.23555 11 6.48991 10.8946 6.67744 10.7071C6.86498 10.5196 6.97034 10.2652 6.97034 10V6H10.9703C11.2356 6 11.4899 5.89464 11.6774 5.70711C11.865 5.51957 11.9703 5.26522 11.9703 5C11.9703 4.73478 11.865 4.48043 11.6774 4.29289C11.4899 4.10536 11.2356 4 10.9703 4H5.97034C5.70512 4 5.45077 4.10536 5.26323 4.29289C5.07569 4.48043 4.97034 4.73478 4.97034 5V10C4.97034 10.2652 5.07569 10.5196 5.26323 10.7071C5.45077 10.8946 5.70512 11 5.97034 11ZM21.9703 23H11.9703C11.4399 23 10.9312 22.7893 10.5561 22.4142C10.1811 22.0391 9.97034 21.5304 9.97034 21V11C9.97034 10.4696 10.1811 9.96086 10.5561 9.58579C10.9312 9.21071 11.4399 9 11.9703 9H21.9703C22.5008 9 23.0095 9.21071 23.3846 9.58579C23.7596 9.96086 23.9703 10.4696 23.9703 11V21C23.9703 21.5304 23.7596 22.0391 23.3846 22.4142C23.0095 22.7893 22.5008 23 21.9703 23ZM11.9703 21H21.9703V11H11.9703V21Z" />
</svg>
