<svg width="33" height="32" viewBox="0 0 33 32" fill="none" xmlns="http://www.w3.org/2000/svg">
<path d="M29.9703 12C29.9709 11.907 29.9582 11.8144 29.9328 11.725L28.1391 5.45C28.0185 5.03364 27.7665 4.66745 27.4207 4.40612C27.0749 4.14478 26.6538 4.00232 26.2203 4H7.72034C7.28688 4.00232 6.8658 4.14478 6.51998 4.40612C6.17416 4.66745 5.92215 5.03364 5.80159 5.45L4.00909 11.725C3.98326 11.8144 3.97022 11.907 3.97034 12V14C3.97034 14.7762 4.15106 15.5418 4.4982 16.2361C4.84534 16.9303 5.34936 17.5343 5.97034 18V26C5.97034 26.5304 6.18105 27.0391 6.55612 27.4142C6.9312 27.7893 7.4399 28 7.97034 28H25.9703C26.5008 28 27.0095 27.7893 27.3846 27.4142C27.7596 27.0391 27.9703 26.5304 27.9703 26V18C28.5913 17.5343 29.0953 16.9303 29.4425 16.2361C29.7896 15.5418 29.9703 14.7762 29.9703 14V12ZM7.72034 6H26.2203L27.6478 11H6.29659L7.72034 6ZM13.9703 13H19.9703V14C19.9703 14.7956 19.6543 15.5587 19.0917 16.1213C18.529 16.6839 17.766 17 16.9703 17C16.1747 17 15.4116 16.6839 14.849 16.1213C14.2864 15.5587 13.9703 14.7956 13.9703 14V13ZM11.9703 13V14C11.9703 14.7956 11.6543 15.5587 11.0917 16.1213C10.529 16.6839 9.76599 17 8.97034 17C8.17469 17 7.41163 16.6839 6.84902 16.1213C6.28641 15.5587 5.97034 14.7956 5.97034 14V13H11.9703ZM25.9703 26H7.97034V18.9C8.29954 18.9664 8.63452 18.9999 8.97034 19C9.74656 19 10.5121 18.8193 11.2064 18.4721C11.9007 18.125 12.5046 17.621 12.9703 17C13.4361 17.621 14.04 18.125 14.7343 18.4721C15.4285 18.8193 16.1941 19 16.9703 19C17.7466 19 18.5121 18.8193 19.2064 18.4721C19.9007 18.125 20.5046 17.621 20.9703 17C21.4361 17.621 22.04 18.125 22.7343 18.4721C23.4285 18.8193 24.1941 19 24.9703 19C25.3062 18.9999 25.6411 18.9664 25.9703 18.9V26ZM24.9703 17C24.1747 17 23.4116 16.6839 22.849 16.1213C22.2864 15.5587 21.9703 14.7956 21.9703 14V13H27.9703V14C27.9703 14.7956 27.6543 15.5587 27.0917 16.1213C26.529 16.6839 25.766 17 24.9703 17Z" fill="white"/>
</svg>
