<svg width="32" height="33" viewBox="0 0 32 33" fill="none" xmlns="http://www.w3.org/2000/svg">
<path d="M23.4475 18.4147L19.4475 16.4147C19.2901 16.3362 19.1147 16.3007 18.9391 16.3117C18.7636 16.3226 18.594 16.3797 18.4475 16.4772L16.6113 17.7022C15.7683 17.2388 15.0747 16.5451 14.6113 15.7022L15.8363 13.8659C15.9337 13.7195 15.9908 13.5499 16.0018 13.3743C16.0128 13.1988 15.9772 13.0234 15.8988 12.8659L13.8988 8.86594C13.8159 8.69853 13.6877 8.55769 13.5289 8.45937C13.3701 8.36106 13.1868 8.30921 13 8.30969C11.6739 8.30969 10.4022 8.83648 9.4645 9.77416C8.52681 10.7118 8.00003 11.9836 8.00003 13.3097C8.00334 16.2261 9.16333 19.022 11.2255 21.0842C13.2877 23.1464 16.0837 24.3064 19 24.3097C19.6566 24.3097 20.3068 24.1804 20.9134 23.9291C21.5201 23.6778 22.0713 23.3095 22.5356 22.8452C22.9999 22.3809 23.3682 21.8297 23.6194 21.2231C23.8707 20.6165 24 19.9663 24 19.3097C24.0002 19.1239 23.9485 18.9418 23.851 18.7837C23.7534 18.6256 23.6137 18.4978 23.4475 18.4147ZM19 22.3097C16.6139 22.307 14.3262 21.358 12.639 19.6707C10.9517 17.9835 10.0027 15.6958 10 13.3097C9.99984 12.6161 10.24 11.9439 10.6796 11.4074C11.1192 10.8709 11.7312 10.5033 12.4113 10.3672L13.8463 13.2422L12.625 15.0597C12.5338 15.1966 12.4777 15.3539 12.4618 15.5176C12.4459 15.6814 12.4706 15.8465 12.5338 15.9984C13.2493 17.6989 14.602 19.0517 16.3025 19.7672C16.4549 19.8332 16.6213 19.8602 16.7867 19.8458C16.9521 19.8314 17.1114 19.776 17.25 19.6847L19.0763 18.4672L21.9513 19.9022C21.8141 20.5831 21.4449 21.1953 20.9067 21.6343C20.3685 22.0734 19.6946 22.3121 19 22.3097ZM16 3.30969C13.7556 3.3092 11.5493 3.8898 9.59585 4.99498C7.64239 6.10015 6.00834 7.69226 4.85274 9.61632C3.69715 11.5404 3.05938 13.7308 3.00151 15.9745C2.94365 18.2182 3.46765 20.4386 4.52253 22.4197L3.10378 26.6759C2.98626 27.0283 2.96921 27.4065 3.05453 27.768C3.13985 28.1296 3.32417 28.4602 3.58684 28.7229C3.84951 28.9855 4.18015 29.1699 4.54169 29.2552C4.90323 29.3405 5.28139 29.3235 5.63378 29.2059L9.89003 27.7872C11.6335 28.7145 13.5653 29.2324 15.5388 29.3017C17.5123 29.3709 19.4757 28.9897 21.2799 28.1869C23.084 27.384 24.6816 26.1807 25.9513 24.6683C27.221 23.1559 28.1294 21.3741 28.6077 19.4581C29.0859 17.5422 29.1214 15.5424 28.7114 13.6107C28.3015 11.679 27.4568 9.86611 26.2416 8.30959C25.0263 6.75306 23.4725 5.49384 21.6979 4.62751C19.9234 3.76118 17.9748 3.3105 16 3.30969ZM16 27.3097C14.0663 27.311 12.1664 26.8018 10.4925 25.8334C10.37 25.7624 10.2337 25.7182 10.0928 25.7037C9.95185 25.6893 9.80945 25.7049 9.67503 25.7497L5.00003 27.3097L6.55878 22.6347C6.60371 22.5004 6.61959 22.358 6.60537 22.2171C6.59115 22.0761 6.54715 21.9398 6.47628 21.8172C5.26374 19.7208 4.77692 17.2829 5.09132 14.8816C5.40572 12.4804 6.50377 10.25 8.21514 8.53643C9.92651 6.8229 12.1555 5.72203 14.5564 5.4046C16.9573 5.08716 19.3958 5.57091 21.4937 6.7808C23.5916 7.99068 25.2316 9.85908 26.1592 12.0961C27.0869 14.3332 27.2504 16.8139 26.6243 19.1533C25.9983 21.4928 24.6177 23.5602 22.6967 25.035C20.7757 26.5097 18.4218 27.3093 16 27.3097Z" fill="white"/>
</svg>
