<svg width="14" height="12" viewBox="0 0 14 12" fill="none" xmlns="http://www.w3.org/2000/svg">
<path d="M0.999674 0H12.9997C13.1765 0 13.3461 0.0702379 13.4711 0.195262C13.5961 0.320286 13.6663 0.489856 13.6663 0.666667V11.3333C13.6663 11.5101 13.5961 11.6797 13.4711 11.8047C13.3461 11.9298 13.1765 12 12.9997 12H8.99967C8.9998 11.5536 8.9657 11.1079 8.89767 10.6667H12.333V1.33333H1.66634V3.43533C1.22516 3.36731 0.779406 3.33321 0.333008 3.33333V0.666667C0.333008 0.489856 0.403246 0.320286 0.52827 0.195262C0.653294 0.0702379 0.822863 0 0.999674 0ZM7.66634 12H6.33301C6.33301 10.4087 5.70087 8.88258 4.57565 7.75736C3.45043 6.63214 1.92431 6 0.333008 6V4.66667C4.38301 4.66667 7.66634 7.95 7.66634 12ZM4.99967 12H3.66634C3.66634 11.5623 3.58012 11.1288 3.41261 10.7244C3.24509 10.32 2.99956 9.95251 2.69003 9.64298C2.3805 9.33345 2.01304 9.08792 1.60862 8.9204C1.2042 8.75289 0.770747 8.66667 0.333008 8.66667V7.33333C1.57068 7.33333 2.75767 7.825 3.63284 8.70017C4.50801 9.57534 4.99967 10.7623 4.99967 12ZM2.33301 12H0.333008V10C0.863441 10 1.37215 10.2107 1.74722 10.5858C2.12229 10.9609 2.33301 11.4696 2.33301 12ZM8.58167 9.33333C8.15814 8.02822 7.4315 6.84197 6.46127 5.87174C5.49103 4.9015 4.30479 4.17487 2.99967 3.75133V2.66667H10.9997V9.33333H8.58167Z" fill="#212134"/>
</svg>
