<svg width="16" height="16" viewBox="0 0 16 16" fill="none" xmlns="http://www.w3.org/2000/svg">
<path fill-rule="evenodd" clip-rule="evenodd" d="M2.86725 0.400085C2.53588 0.400085 2.26725 0.668715 2.26725 1.00009C2.26725 1.33146 2.53588 1.60009 2.86725 1.60009H13.0747C13.406 1.60009 13.6747 1.33146 13.6747 1.00009C13.6747 0.668715 13.406 0.400085 13.0747 0.400085H2.86725ZM13.7337 2.86656C14.6173 2.86656 15.3337 3.583 15.3337 4.46665V4.98322V13.7332C15.3337 14.6169 14.6169 15.3332 13.7332 15.3332H11.667H4.33366H2.26711C1.38346 15.3332 0.667015 14.6169 0.667015 13.7332L0.66701 5.33324C0.66701 5.33324 0.666995 10.5832 0.666992 4.47414C0.666992 3.59049 1.38334 2.86656 2.26699 2.86656H8.00033H13.7337ZM3.35515 12.7863H12.9125L10.8218 10.65L9.62714 11.8708L6.93914 9.12401L3.35515 12.7863ZM10.8218 8.51453C9.98552 8.51453 9.32845 7.8431 9.32845 6.98856C9.32845 6.13401 9.98552 5.46259 10.8218 5.46259C11.658 5.46259 12.3151 6.13401 12.3151 6.98856C12.3151 7.8431 11.658 8.51453 10.8218 8.51453Z" fill="#212134"/>
</svg>
