<svg width="16" height="13" viewBox="0 0 16 13" fill="none" xmlns="http://www.w3.org/2000/svg">
<path d="M10.0003 0.333317C10.4685 0.333261 10.9285 0.456472 11.3339 0.69056C11.7394 0.924648 12.0761 1.26136 12.3102 1.66685C12.5442 2.07233 12.6674 2.53229 12.6673 3.00048C12.6672 3.46867 12.5439 3.92859 12.3097 4.33398L15.3337 4.33332V5.66665H14.0003V12.3333C14.0003 12.5101 13.9301 12.6797 13.8051 12.8047C13.68 12.9297 13.5105 13 13.3337 13H2.66699C2.49018 13 2.32061 12.9297 2.19559 12.8047C2.07056 12.6797 2.00033 12.5101 2.00033 12.3333V5.66665H0.666992V4.33332L3.69099 4.33398C3.36023 3.76124 3.25412 3.08602 3.39325 2.43943C3.53238 1.79284 3.90682 1.22103 4.44388 0.835019C4.98094 0.449008 5.64228 0.27635 6.29949 0.35057C6.9567 0.424789 7.56288 0.740589 8.00033 1.23665C8.25005 0.952238 8.5577 0.724499 8.90264 0.568702C9.24758 0.412905 9.62183 0.33265 10.0003 0.333317ZM8.66699 5.66665H7.33366V12.3333H8.66699V5.66665ZM6.00033 1.66665C5.65434 1.6651 5.32129 1.79811 5.07156 2.03757C4.82182 2.27703 4.67495 2.60419 4.66196 2.94994C4.64898 3.29569 4.77091 3.63295 5.00199 3.89046C5.23306 4.14798 5.55519 4.30558 5.90033 4.32998L6.00033 4.33332H7.33366V2.99998C7.33367 2.68136 7.21958 2.37326 7.01205 2.13149C6.80452 1.88972 6.51727 1.73026 6.20233 1.68198L6.09966 1.66998L6.00033 1.66665ZM10.0003 1.66665C9.66394 1.66654 9.33995 1.79359 9.09329 2.02232C8.84664 2.25104 8.69555 2.56455 8.67033 2.89998L8.66699 2.99998V4.33332H10.0003C10.3367 4.33342 10.6607 4.20638 10.9074 3.97765C11.154 3.74893 11.3051 3.43542 11.3303 3.09998L11.3337 2.99998C11.3337 2.64636 11.1932 2.30722 10.9431 2.05717C10.6931 1.80713 10.3539 1.66665 10.0003 1.66665Z" fill="#4945FF"/>
</svg>

