<svg width="12" height="15" viewBox="0 0 12 15" fill="none" xmlns="http://www.w3.org/2000/svg">
<path d="M11.3337 14.6667H0.666992V13.3334C0.666992 12.4493 1.01818 11.6015 1.6433 10.9763C2.26842 10.3512 3.11627 10 4.00033 10H8.00033C8.88438 10 9.73223 10.3512 10.3573 10.9763C10.9825 11.6015 11.3337 12.4493 11.3337 13.3334V14.6667ZM6.00033 8.66669C5.47504 8.66669 4.95489 8.56322 4.46959 8.36221C3.98429 8.16119 3.54333 7.86655 3.1719 7.49511C2.80046 7.12368 2.50583 6.68272 2.30481 6.19742C2.10379 5.71212 2.00033 5.19197 2.00033 4.66669C2.00033 4.1414 2.10379 3.62126 2.30481 3.13595C2.50583 2.65065 2.80046 2.20969 3.1719 1.83826C3.54333 1.46683 3.98429 1.17219 4.46959 0.971169C4.95489 0.77015 5.47504 0.666687 6.00033 0.666687C7.06119 0.666687 8.07861 1.08811 8.82875 1.83826C9.5789 2.58841 10.0003 3.60582 10.0003 4.66669C10.0003 5.72755 9.5789 6.74497 8.82875 7.49511C8.07861 8.24526 7.06119 8.66669 6.00033 8.66669Z" fill="#212134"/>
</svg>
