<svg width="14" height="14" viewBox="0 0 14 14" fill="none" xmlns="http://www.w3.org/2000/svg">
<path d="M3.11301 11C3.25074 10.6097 3.50617 10.2716 3.84407 10.0326C4.18198 9.79346 4.58573 9.66506 4.99967 9.66506C5.41362 9.66506 5.81737 9.79346 6.15527 10.0326C6.49318 10.2716 6.74861 10.6097 6.88634 11H13.6663V12.3334H6.88634C6.74861 12.7237 6.49318 13.0617 6.15527 13.3008C5.81737 13.5399 5.41362 13.6683 4.99967 13.6683C4.58573 13.6683 4.18198 13.5399 3.84407 13.3008C3.50617 13.0617 3.25074 12.7237 3.11301 12.3334H0.333008V11H3.11301ZM7.11301 6.33336C7.25074 5.94301 7.50617 5.60498 7.84407 5.36589C8.18198 5.12679 8.58573 4.99839 8.99967 4.99839C9.41362 4.99839 9.81737 5.12679 10.1553 5.36589C10.4932 5.60498 10.7486 5.94301 10.8863 6.33336H13.6663V7.66669H10.8863C10.7486 8.05705 10.4932 8.39507 10.1553 8.63417C9.81737 8.87326 9.41362 9.00166 8.99967 9.00166C8.58573 9.00166 8.18198 8.87326 7.84407 8.63417C7.50617 8.39507 7.25074 8.05705 7.11301 7.66669H0.333008V6.33336H7.11301ZM3.11301 1.66669C3.25074 1.27634 3.50617 0.938316 3.84407 0.699219C4.18198 0.460123 4.58573 0.331726 4.99967 0.331726C5.41362 0.331726 5.81737 0.460123 6.15527 0.699219C6.49318 0.938316 6.74861 1.27634 6.88634 1.66669H13.6663V3.00003H6.88634C6.74861 3.39038 6.49318 3.7284 6.15527 3.9675C5.81737 4.2066 5.41362 4.33499 4.99967 4.33499C4.58573 4.33499 4.18198 4.2066 3.84407 3.9675C3.50617 3.7284 3.25074 3.39038 3.11301 3.00003H0.333008V1.66669H3.11301Z" fill="#4945FF"/>
</svg>
