<svg width="16" height="13" viewBox="0 0 16 13" fill="none" xmlns="http://www.w3.org/2000/svg">
<path d="M1.86692 2.46664L4.66692 4.33331L7.45758 0.42664C7.51925 0.34022 7.60067 0.269777 7.69506 0.221175C7.78945 0.172573 7.89408 0.147217 8.00025 0.147217C8.10642 0.147217 8.21105 0.172573 8.30544 0.221175C8.39983 0.269777 8.48125 0.34022 8.54292 0.42664L11.3336 4.33331L14.1336 2.46664C14.2396 2.39614 14.3635 2.35744 14.4907 2.35513C14.618 2.35282 14.7433 2.38698 14.8517 2.45359C14.9602 2.52019 15.0473 2.61645 15.1028 2.731C15.1583 2.84554 15.1799 2.97358 15.1649 3.09997L14.0696 12.4113C14.0505 12.5735 13.9725 12.723 13.8505 12.8315C13.7285 12.94 13.5709 13 13.4076 13H2.59292C2.42963 13 2.27202 12.94 2.15 12.8315C2.02798 12.723 1.95002 12.5735 1.93092 12.4113L0.835582 3.09931C0.820782 2.97296 0.842439 2.84502 0.897996 2.73058C0.953553 2.61615 1.04069 2.52 1.14912 2.45348C1.25756 2.38696 1.38275 2.35286 1.50994 2.35519C1.63713 2.35752 1.76099 2.39619 1.86692 2.46664V2.46664ZM8.00025 8.99997C8.35387 8.99997 8.69301 8.8595 8.94306 8.60945C9.19311 8.3594 9.33358 8.02026 9.33358 7.66664C9.33358 7.31302 9.19311 6.97388 8.94306 6.72383C8.69301 6.47378 8.35387 6.33331 8.00025 6.33331C7.64663 6.33331 7.30749 6.47378 7.05744 6.72383C6.80739 6.97388 6.66692 7.31302 6.66692 7.66664C6.66692 8.02026 6.80739 8.3594 7.05744 8.60945C7.30749 8.8595 7.64663 8.99997 8.00025 8.99997Z" fill="#212134"/>
</svg>
